<?xml version="1.0" encoding="UTF-8"?>
<svg version="1.1" xmlns="http://www.w3.org/2000/svg" width="366" height="64">
<path d="M0 0 C2.74622912 1.40969843 4.64508425 2.95224717 7 5 C7.598125 4.360625 8.19625 3.72125 8.8125 3.0625 C12.6456812 -0.55164227 16.55570804 -0.29045277 21.5625 -0.203125 C24.91300698 0.07608391 26.53665745 0.68155996 29 3 C34.11842194 10.55486633 33.46044343 18.25071497 33.25 27 C33.22990336 28.45700669 33.21165818 29.91404015 33.1953125 31.37109375 C33.15156901 34.9146255 33.08271767 38.45713877 33 42 C28.71 42 24.42 42 20 42 C19.93941406 40.25332031 19.87882812 38.50664063 19.81640625 36.70703125 C19.73198313 34.40884636 19.64733602 32.11066969 19.5625 29.8125 C19.52318359 28.66201172 19.48386719 27.51152344 19.44335938 26.32617188 C19.40146484 25.21435547 19.35957031 24.10253906 19.31640625 22.95703125 C19.26141968 21.42526245 19.26141968 21.42526245 19.20532227 19.86254883 C19.01159937 17.16171537 18.59548047 14.63833872 18 12 C15.08365871 11.7497843 15.08365871 11.7497843 12 12 C9.67547376 15.48678936 9.70226266 17.06967571 9.5859375 21.19921875 C9.54726563 22.40771484 9.50859375 23.61621094 9.46875 24.86132812 C9.42234375 26.7552832 9.42234375 26.7552832 9.375 28.6875 C9.33632813 29.96173828 9.29765625 31.23597656 9.2578125 32.54882812 C9.16342602 35.69897694 9.08061965 38.8494688 9 42 C4.38 42 -0.24 42 -5 42 C-5.33 32.1 -5.66 22.2 -6 12 C-7.98 12 -9.96 12 -12 12 C-14.75439516 14.75439516 -14.30989276 16.46603203 -14.4140625 20.3203125 C-14.47207031 22.20556641 -14.47207031 22.20556641 -14.53125 24.12890625 C-14.5621875 25.44761719 -14.593125 26.76632813 -14.625 28.125 C-14.66318029 29.46486918 -14.70223206 30.80471383 -14.7421875 32.14453125 C-14.83671758 35.42945148 -14.91945733 38.71470706 -15 42 C-19.62 42 -24.24 42 -29 42 C-29 28.47 -29 14.94 -29 1 C-25.04 1 -21.08 1 -17 1 C-16.67 1.99 -16.34 2.98 -16 4 C-15.21625 3.34 -14.4325 2.68 -13.625 2 C-9.3453318 -0.82275988 -4.95380618 -0.94395362 0 0 Z " fill="#E9E9E9" transform="translate(252,18)"/>
<path d="M0 0 C1.2890625 -0.00515625 2.578125 -0.0103125 3.90625 -0.015625 C7.5 0.25 7.5 0.25 12.5 2.25 C11.84 5.88 11.18 9.51 10.5 13.25 C8.025 12.755 8.025 12.755 5.5 12.25 C3.96098802 12.14007057 2.4178761 12.07575495 0.875 12.0625 C-0.25808594 12.04123047 -0.25808594 12.04123047 -1.4140625 12.01953125 C-3.80626288 12.1219743 -3.80626288 12.1219743 -6.5 14.25 C-6.83 15.9 -7.16 17.55 -7.5 19.25 C0.42 19.25 8.34 19.25 16.5 19.25 C16.5 32.78 16.5 46.31 16.5 60.25 C11.88 60.25 7.26 60.25 2.5 60.25 C2.5 50.02 2.5 39.79 2.5 29.25 C-0.8 29.25 -4.1 29.25 -7.5 29.25 C-7.5 39.48 -7.5 49.71 -7.5 60.25 C-12.12 60.25 -16.74 60.25 -21.5 60.25 C-21.5 50.02 -21.5 39.79 -21.5 29.25 C-23.15 29.25 -24.8 29.25 -26.5 29.25 C-26.5 25.95 -26.5 22.65 -26.5 19.25 C-24.85 19.25 -23.2 19.25 -21.5 19.25 C-21.5825 18.21875 -21.665 17.1875 -21.75 16.125 C-21.38843706 10.52077442 -19.11140721 7.73745281 -15.0625 4 C-10.04627771 0.57428722 -6.06149602 -0.02424598 0 0 Z " fill="#EDEDED" transform="translate(26.5,-0.25)"/>
<path d="M0 0 C6.07384411 4.79573539 9.0552321 10.52286077 10.0625 18.17578125 C10.30864523 24.58540301 9.36801742 30.30317879 5.28125 35.38671875 C1.54657319 39.03474413 -1.90722761 40.5530371 -7.12109375 40.84765625 C-10.67522454 40.42914447 -12.57633544 38.87921857 -15.27734375 36.59375 C-15.68210937 37.07070313 -16.086875 37.54765625 -16.50390625 38.0390625 C-19.59067465 40.74508414 -23.29375003 40.71276774 -27.27734375 40.59375 C-30.29341799 39.37448595 -31.71726675 38.52985042 -33.3828125 35.74609375 C-35.17449111 31.43511159 -34.96892685 26.87556011 -33.625 22.44140625 C-31.33111282 17.31215637 -27.93153518 13.71454193 -23.27734375 10.59375 C-20.08577927 9.52989517 -17.69236899 9.42697018 -14.33984375 9.40625 C-13.29957031 9.39207031 -12.25929687 9.37789062 -11.1875 9.36328125 C-8.32687762 9.58982718 -6.70064224 10.11641381 -4.27734375 11.59375 C-4.87022563 18.93539374 -5.51555575 26.26761859 -6.27734375 33.59375 C-2.67626696 32.51531118 -2.67626696 32.51531118 -0.1328125 29.9140625 C2.02207723 24.06929308 1.47343017 16.84607176 -0.46484375 11.03125 C-3.22617898 7.31773021 -5.87678925 5.0606015 -10.27734375 3.59375 C-17.09880305 2.9772922 -22.69781351 3.04603186 -28.65625 6.62109375 C-30.27734375 7.59375 -30.27734375 7.59375 -33.27734375 8.59375 C-34.39669448 10.24005193 -34.39669448 10.24005193 -35.27734375 12.59375 C-35.81359375 13.728125 -36.34984375 14.8625 -36.90234375 16.03125 C-39.42903661 22.96345862 -39.68931791 31.35800241 -36.65234375 38.15625 C-33.96842026 42.68358002 -30.21061483 44.94932631 -25.27734375 46.59375 C-18.87526525 46.91198197 -12.58488236 46.7405752 -6.27734375 45.59375 C-5.78234375 48.56375 -5.78234375 48.56375 -5.27734375 51.59375 C-9.99820487 53.99744711 -14.41430169 53.96069468 -19.58984375 53.96875 C-20.81477539 54.00548828 -20.81477539 54.00548828 -22.06445312 54.04296875 C-29.06249577 54.07642553 -34.08699218 52.23073086 -39.484375 47.76953125 C-45.40839138 40.89421297 -47.90768043 34.2541498 -47.5546875 25.1328125 C-46.44835371 15.00440456 -41.99091118 7.13171896 -34.02734375 0.71875 C-23.84310066 -5.91018301 -10.34219434 -6.38626065 0 0 Z M-22.08984375 20.09375 C-24.97656122 23.86452469 -24.67456837 26.98594439 -24.27734375 31.59375 C-21.80234375 32.08875 -21.80234375 32.08875 -19.27734375 32.59375 C-14.63411861 28.10030632 -14.51551899 23.72676236 -14.27734375 17.59375 C-18.26771631 17.32548966 -18.93247322 17.28719842 -22.08984375 20.09375 Z " fill="#DEDEDE" transform="translate(126.27734375,10.40625)"/>
<path d="M0 0 C4.62 0 9.24 0 14 0 C14.33 6.93 14.66 13.86 15 21 C16.65 20.01 18.3 19.02 20 18 C24.2443561 17.11973965 28.27383256 17.05155635 32.1328125 19.171875 C35.72927086 22.09117593 37.55322231 24.56128301 39 29 C39.22705078 32.41333008 39.22705078 32.41333008 39.1953125 36.26953125 C39.1924826 36.95053391 39.18965271 37.63153656 39.18673706 38.33317566 C39.17560525 40.49313455 39.15051457 42.65266794 39.125 44.8125 C39.11496111 46.28319711 39.10583685 47.75390076 39.09765625 49.22460938 C39.0773963 52.81669925 39.03823667 56.40787732 39 60 C34.38 60 29.76 60 25 60 C24.95101562 58.00195312 24.90203125 56.00390625 24.8515625 53.9453125 C24.79594235 52.01251243 24.74025454 50.07971363 24.68261719 48.14697266 C24.62545964 46.14113029 24.57831404 44.13501082 24.53125 42.12890625 C24.49257812 40.87207031 24.45390625 39.61523438 24.4140625 38.3203125 C24.3826416 37.15773926 24.3512207 35.99516602 24.31884766 34.79736328 C24.27842131 31.86343518 24.27842131 31.86343518 22 30 C18.17435335 30.18757062 18.17435335 30.18757062 15 32 C14.8415735 34.0708472 14.74875578 36.14678029 14.68359375 38.22265625 C14.64169922 39.48271484 14.59980469 40.74277344 14.55664062 42.04101562 C14.51682404 43.38150736 14.47711186 44.7220022 14.4375 46.0625 C14.39431958 47.40691523 14.35070544 48.7513166 14.30664062 50.09570312 C14.20014717 53.39700013 14.0995325 56.69848579 14 60 C9.38 60 4.76 60 0 60 C0 40.2 0 20.4 0 0 Z " fill="#EAEAEA" transform="translate(141,0)"/>
<path d="M0 0 C4.62 0 9.24 0 14 0 C14.06058594 1.83046875 14.12117188 3.6609375 14.18359375 5.546875 C14.26800565 7.94792454 14.35265333 10.34896579 14.4375 12.75 C14.47681641 13.9565625 14.51613281 15.163125 14.55664062 16.40625 C14.61948242 18.14648438 14.61948242 18.14648438 14.68359375 19.921875 C14.72025146 20.99018555 14.75690918 22.05849609 14.79467773 23.15917969 C14.96986909 25.58311152 15.31198487 27.67886712 16 30 C19.465 29.505 19.465 29.505 23 29 C24.72578232 25.25881444 25.23924962 22.36983981 25.1953125 18.26171875 C25.18886719 17.19501953 25.18242187 16.12832031 25.17578125 15.02929688 C25.15902344 13.92650391 25.14226562 12.82371094 25.125 11.6875 C25.11597656 10.56537109 25.10695313 9.44324219 25.09765625 8.28710938 C25.07414594 5.52464783 25.03827662 2.7622964 25 0 C29.95 0 34.9 0 40 0 C40 13.53 40 27.06 40 41 C36.04 41 32.08 41 28 41 C27.34 40.01 26.68 39.02 26 38 C25.401875 38.474375 24.80375 38.94875 24.1875 39.4375 C20.08466798 42.3680943 15.88268308 42.50031288 11 42 C5.81078829 40.20373441 3.62955609 37.77215734 1 33 C-0.20701309 29.43451775 -0.11406734 26.00735241 -0.09765625 22.265625 C-0.09443359 20.97011719 -0.09121094 19.67460938 -0.08789062 18.33984375 C-0.07953598 16.97656183 -0.07107104 15.61328058 -0.0625 14.25 C-0.05748168 12.87109535 -0.05291935 11.49218896 -0.04882812 10.11328125 C-0.03704102 6.74216882 -0.01910561 3.3710789 0 0 Z " fill="#E4E4E4" transform="translate(290,18)"/>
<path d="M0 0 C0 3.96 0 7.92 0 12 C2.97 12 5.94 12 9 12 C9 15.3 9 18.6 9 22 C6.03 22 3.06 22 0 22 C0.33 28.6 0.66 35.2 1 42 C3.64 42 6.28 42 9 42 C9.08090971 43.62418745 9.13914995 45.24951745 9.1875 46.875 C9.23970703 48.23238281 9.23970703 48.23238281 9.29296875 49.6171875 C9.19628906 50.40351562 9.09960938 51.18984375 9 52 C4.73525008 54.84316661 1.00482365 54.50671891 -4 54 C-8.18579545 52.47789256 -10.80899819 50.92074009 -13 47 C-13.81485072 43.65970733 -14.1197977 40.5686439 -14.09765625 37.13671875 C-14.09443359 36.25048828 -14.09121094 35.36425781 -14.08789062 34.45117188 C-14.07951172 33.53916016 -14.07113281 32.62714844 -14.0625 31.6875 C-14.05798828 30.75615234 -14.05347656 29.82480469 -14.04882812 28.86523438 C-14.03709234 26.57675627 -14.02067363 24.28841192 -14 22 C-15.65 22 -17.3 22 -19 22 C-19 18.7 -19 15.4 -19 12 C-17.35 12 -15.7 12 -14 12 C-14 9.03 -14 6.06 -14 3 C-12.0424015 2.49713066 -10.08389623 1.9977901 -8.125 1.5 C-7.03445312 1.2215625 -5.94390625 0.943125 -4.8203125 0.65625 C-2 0 -2 0 0 0 Z " fill="#E3E3E3" transform="translate(67,6)"/>
<path d="M0 0 C-0.66 3.3 -1.32 6.6 -2 10 C-6.29 9.67 -10.58 9.34 -15 9 C-15.33 9.99 -15.66 10.98 -16 12 C-15.43152344 12.15855469 -14.86304688 12.31710938 -14.27734375 12.48046875 C-8.64804311 14.18147612 -4.57085718 16.28617854 0 20 C1.98291097 23.96582194 1.54299171 28.68727275 1 33 C-1.94411811 37.28235361 -5.94238548 39.81591239 -11 41 C-18.04408607 41.69961671 -23.75012171 41.40902452 -30 38 C-29.34 34.7 -28.68 31.4 -28 28 C-26.845 28.33 -25.69 28.66 -24.5 29 C-20.22499413 30.08401934 -16.39638547 30.15701377 -12 30 C-12.98664076 27.46217004 -13.56077199 26.24075563 -15.98828125 24.91015625 C-16.75527344 24.63042969 -17.52226562 24.35070312 -18.3125 24.0625 C-22.60055631 22.32241918 -24.98889882 20.48158574 -28 17 C-28.33 16.67 -28.66 16.34 -29 16 C-29.66733106 12.06359147 -29.81860496 8.46414914 -27.8359375 4.91796875 C-20.95710331 -3.46009853 -9.73244196 -4.32552976 0 0 Z " fill="#E7E7E7" transform="translate(365,19)"/>
<path d="M0 0 C-0.66 3.63 -1.32 7.26 -2 11 C-3.22976562 10.93039063 -3.22976562 10.93039063 -4.484375 10.859375 C-5.56203125 10.82328125 -6.6396875 10.7871875 -7.75 10.75 C-8.81734375 10.70359375 -9.8846875 10.6571875 -10.984375 10.609375 C-14.08110691 10.75634008 -14.08110691 10.75634008 -16.3359375 12.7734375 C-18.70832103 15.94775349 -19.0962525 19.13509212 -19 23 C-18.18156968 26.3815339 -18.18156968 26.3815339 -17 29 C-15.89591797 29.09087891 -15.89591797 29.09087891 -14.76953125 29.18359375 C-13.79371094 29.26738281 -12.81789062 29.35117187 -11.8125 29.4375 C-10.36810547 29.55931641 -10.36810547 29.55931641 -8.89453125 29.68359375 C-6.21350398 29.97666151 -3.6337014 30.42703754 -1 31 C-0.505 35.455 -0.505 35.455 0 40 C-7.10814433 43.15917526 -15.61976894 43.27442 -22.875 40.5 C-27.96900668 37.90668751 -31.84453977 33.51569913 -33.640625 28.05078125 C-35.14352931 19.47442512 -33.72026048 13.08039072 -28.875 5.8125 C-21.47432583 -2.35451617 -10.07393603 -2.51848401 0 0 Z " fill="#E8E8E8" transform="translate(218,18)"/>
</svg>
